<?xml version="1.0" encoding="UTF-8"?>
<svg xmlns="http://www.w3.org/2000/svg" viewBox="0 0 800 500" width="800" height="500">
  <rect width="800" height="500" fill="#fff" stroke="#000"/>
  <text x="400" y="40" text-anchor="middle" font-family="monospace" font-size="20" font-weight="bold">
    Robot Dog Leg v1 — PCB Top Layer (placeholder)
  </text>
  <g font-family="monospace" font-size="14" stroke="#000" fill="none">
    <rect x="80" y="100" width="160" height="120" stroke-width="2"/>
    <text x="160" y="160" text-anchor="middle" stroke="none" fill="#333" font-weight="bold">
      MCU
    </text>
    <text x="160" y="180" text-anchor="middle" stroke="none" fill="#666" font-size="11">
      GPIO13/14: PWM
    </text>
    <text x="160" y="195" text-anchor="middle" stroke="none" fill="#666" font-size="11">
      GPIO21/22: I2C
    </text>

    <rect x="320" y="80" width="120" height="60" stroke-width="2"/>
    <text x="380" y="115" text-anchor="middle" stroke="none" fill="#333">MG996R Hip</text>

    <rect x="320" y="180" width="120" height="60" stroke-width="2"/>
    <text x="380" y="215" text-anchor="middle" stroke="none" fill="#333">MG996R Knee</text>

    <rect x="540" y="100" width="120" height="60" stroke-width="2"/>
    <text x="600" y="135" text-anchor="middle" stroke="none" fill="#333">MPU6050</text>

    <rect x="80" y="320" width="120" height="60" stroke-width="2"/>
    <text x="140" y="355" text-anchor="middle" stroke="none" fill="#333">Battery 3S</text>

    <rect x="280" y="320" width="120" height="60" stroke-width="2"/>
    <text x="340" y="355" text-anchor="middle" stroke="none" fill="#333">DCDC 5V</text>

    <line x1="240" y1="130" x2="320" y2="110" stroke-width="1.5"/>
    <line x1="240" y1="170" x2="320" y2="210" stroke-width="1.5"/>
    <line x1="240" y1="150" x2="540" y2="130" stroke-width="1.5"/>
    <line x1="200" y1="350" x2="280" y2="350" stroke-width="1.5"/>
    <line x1="400" y1="350" x2="160" y2="220" stroke-width="1.5"/>
  </g>
</svg>
